<svg xmlns="http://www.w3.org/2000/svg" xmlns:xlink="http://www.w3.org/1999/xlink"  viewBox="0 0 150 150" fill="none"><g opacity="1"  transform="translate(0 0)  rotate(0)"><mask id="bg-mask-0" fill="white"><use xlink:href="#path_0"></use></mask><g mask="url(#bg-mask-0)" ><g opacity="1"  transform="translate(13 14)  rotate(0)"><mask id="mask-1" fill="white"><path d="M116.4,55.96h-52.8c-1.99,0 -3.6,-1.63 -3.6,-3.64v-39.5c0,-1.77 1.26,-3.28 2.99,-3.58l52.8,-9.19c2.21,-0.38 4.21,1.34 4.21,3.6v48.67c0,2.01 -1.61,3.64 -3.6,3.64zM48.4,55.96h-44.8c-1.99,0 -3.6,-1.63 -3.6,-3.64v-28.88c0,-1.77 1.27,-3.3 3,-3.59l44.8,-7.67c2.19,-0.38 4.2,1.33 4.2,3.59v36.55c0,2.01 -1.61,3.64 -3.6,3.64zM48.4,64.04c1.99,0 3.6,1.63 3.6,3.64v36.55c0,2.26 -2.01,3.97 -4.2,3.59l-44.8,-7.67c-1.73,-0.29 -3,-1.82 -3,-3.59v-28.88c0,-2.01 1.61,-3.64 3.6,-3.64zM116.4,64.04c1.99,0 3.6,1.63 3.6,3.64v48.67c0,2.26 -2,3.98 -4.21,3.6l-52.8,-9.19c-1.73,-0.3 -2.99,-1.81 -2.99,-3.58v-39.5c0,-2.01 1.61,-3.64 3.6,-3.64z"  ></path></mask><g mask="url(#mask-1)"><path id="拼合图形" fill-rule="evenodd" fill="url(#linear_0)" opacity="1" d="M116.4,55.96h-52.8c-1.99,0 -3.6,-1.63 -3.6,-3.64v-39.5c0,-1.77 1.26,-3.28 2.99,-3.58l52.8,-9.19c2.21,-0.38 4.21,1.34 4.21,3.6v48.67c0,2.01 -1.61,3.64 -3.6,3.64zM48.4,55.96h-44.8c-1.99,0 -3.6,-1.63 -3.6,-3.64v-28.88c0,-1.77 1.27,-3.3 3,-3.59l44.8,-7.67c2.19,-0.38 4.2,1.33 4.2,3.59v36.55c0,2.01 -1.61,3.64 -3.6,3.64zM48.4,64.04c1.99,0 3.6,1.63 3.6,3.64v36.55c0,2.26 -2.01,3.97 -4.2,3.59l-44.8,-7.67c-1.73,-0.29 -3,-1.82 -3,-3.59v-28.88c0,-2.01 1.61,-3.64 3.6,-3.64zM116.4,64.04c1.99,0 3.6,1.63 3.6,3.64v48.67c0,2.26 -2,3.98 -4.21,3.6l-52.8,-9.19c-1.73,-0.3 -2.99,-1.81 -2.99,-3.58v-39.5c0,-2.01 1.61,-3.64 3.6,-3.64z"></path></g><g mask="url(#mask-1)"><path id="三角形 1" fill-rule="evenodd" fill="url(#linear_1)" opacity="1" d="M15.93,23h13.07l24.35,46.05c1.13,2.13 4.17,2.13 5.3,0l24.35,-46.05h0.58h12.49c2.25,0 3.71,2.38 2.67,4.38l-40.08,77.47c-1.12,2.15 -4.2,2.15 -5.32,0l-40.08,-77.47c-1.04,-2 0.42,-4.38 2.67,-4.38zM83,23h-8.18z"></path></g><g mask="url(#mask-1)"><path id="三角形 1" fill-rule="evenodd" fill="url(#linear_2)" opacity="1" d="M29.0001 22.9952L45.1601 22.9952C46.2901 22.9952 47.3201 23.6352 47.8301 24.6352L53.3301 35.4052C54.4401 37.5852 57.5601 37.5852 58.6701 35.4052L64.1701 24.6352C64.6801 23.6352 65.7101 22.9952 66.8401 22.9952L83.0001 22.9952L58.6501 69.0452C57.5201 71.1752 54.4801 71.1752 53.3501 69.0452L29.0001 22.9952Z"></path></g></g></g></g><defs><rect id="path_0" x="0" y="0" width="150" height="150" /><linearGradient id="linear_0" x1="100%" y1="100%" x2="0%" y2="5.989%" gradientUnits="objectBoundingBox"><stop offset="0" stop-color="#BC32FC" stop-opacity="1" /><stop offset="1" stop-color="#FF8D1A" stop-opacity="1" /></linearGradient><linearGradient id="linear_1" x1="0%" y1="42.02898440073942%" x2="100%" y2="42.02898440073942%" gradientUnits="objectBoundingBox"><stop offset="0" stop-color="#45CC9B" stop-opacity="1" /><stop offset="1" stop-color="#647EFF" stop-opacity="1" /><stop offset="1.01" stop-color="#4CCAFE" stop-opacity="1" /></linearGradient><linearGradient id="linear_2" x1="0%" y1="100%" x2="105.61%" y2="0%" gradientUnits="objectBoundingBox"><stop offset="0" stop-color="#35495E" stop-opacity="1" /><stop offset="1" stop-color="#35495E" stop-opacity="1" /></linearGradient></defs></svg>